<svg width="40" height="40" viewBox="0 0 40 40" fill="none" xmlns="http://www.w3.org/2000/svg">
  <!-- Building base -->
  <rect x="8" y="20" width="24" height="16" fill="#644c74" rx="2"/>
  
  <!-- Building top section -->
  <rect x="12" y="12" width="16" height="12" fill="#d5b8e0" rx="1"/>
  
  <!-- Roof -->
  <path d="M10 12 L20 6 L30 12 Z" fill="#2b261f"/>
  
  <!-- Windows -->
  <rect x="14" y="14" width="2" height="3" fill="#644c74"/>
  <rect x="18" y="14" width="2" height="3" fill="#644c74"/>
  <rect x="22" y="14" width="2" height="3" fill="#644c74"/>
  <rect x="24" y="14" width="2" height="3" fill="#644c74"/>
  
  <!-- Door -->
  <rect x="18" y="28" width="4" height="8" fill="#2b261f" rx="2"/>
  
  <!-- Side windows -->
  <rect x="10" y="22" width="2" height="3" fill="#d5b8e0"/>
  <rect x="10" y="26" width="2" height="3" fill="#d5b8e0"/>
  <rect x="28" y="22" width="2" height="3" fill="#d5b8e0"/>
  <rect x="28" y="26" width="2" height="3" fill="#d5b8e0"/>
  
  <!-- Protection symbol (shield) -->
  <path d="M20 8 L22 10 L20 12 L18 10 Z" fill="#d5b8e0"/>
  
  <!-- Foundation line -->
  <rect x="6" y="36" width="28" height="2" fill="#2b261f" rx="1"/>
</svg>